<svg width="520" height="330" viewBox="0 0 520 330" fill="none" xmlns="http://www.w3.org/2000/svg"><rect width="520" height="210" rx="10" fill="#0e80be"/><path d="M0 0h520v210H0z" fill="#086fa8"/><path d="M0 174c84-18 124 26 210 8 94-20 146-4 310 18v130H0z" fill="none"/><g opacity=".22" stroke="#043f63" stroke-width="5"><path d="M20 20l30 30-30 30M70 20l30 30-30 30M120 20l30 30-30 30M170 20l30 30-30 30M220 20l30 30-30 30M270 20l30 30-30 30M320 20l30 30-30 30M370 20l30 30-30 30M420 20l30 30-30 30"/></g><text x="35" y="57" font-family="Arial" font-size="24" font-style="italic" font-weight="700" fill="white">Belgazprombank</text><text x="350" y="66" font-family="Arial" font-size="48" font-weight="700" fill="white">КАРТА</text><text x="345" y="116" font-family="Arial" font-size="48" font-weight="700" fill="white">пакупак</text><rect x="45" y="96" width="78" height="70" rx="9" fill="#f6bb3f"/><text x="36" y="191" font-family="monospace" font-size="31" fill="white">0000 0000 0000 0000</text><path d="M0 210c65-28 119 20 193-8 86-32 165-4 327 18v110H0z" fill="white"/><text x="42" y="288" font-family="Arial" font-size="27" fill="#777">KARTA POKUPOK</text><circle cx="422" cy="251" r="34" fill="#e51b24"/><circle cx="455" cy="251" r="34" fill="#f7a51d" fill-opacity=".92"/></svg>
